<svg width="15" height="15" viewBox="0 0 15 15" fill="none" xmlns="http://www.w3.org/2000/svg">
<path d="M0.912595 5.17459L0.90625 2.59322C0.90625 2.32438 1.10718 2.12601 1.31868 2.18343L2.07161 2.38963C2.2958 2.44966 2.4777 2.64803 2.55807 2.91165L2.93665 4.15927L5.62905 5.14066L4.75132 1.35082C4.68999 1.08459 4.85284 0.818359 5.07703 0.818359H5.92515C6.17049 0.818359 6.39468 0.980185 6.51523 1.2438L8.82058 6.30215L11.0879 7.12955C11.4241 7.25222 11.7393 7.45581 12.0121 7.72464L12.7397 8.44503C13.2473 8.94616 13.1225 9.94061 12.5134 10.2251C11.642 10.6323 10.6902 10.6975 9.78925 10.4078L3.48021 8.38239C3.24544 8.30669 3.03183 8.15531 2.86051 7.94128L1.10718 5.76186C0.98239 5.60526 0.91048 5.39645 0.91048 5.17459H0.912595ZM1.58305 12.5115H13.7655C14.1398 12.5115 14.4423 12.8848 14.4423 13.3468C14.4423 13.8088 14.1398 14.182 13.7655 14.182H1.58305C1.20869 14.182 0.90625 13.8088 0.90625 13.3468C0.90625 12.8848 1.20869 12.5115 1.58305 12.5115ZM4.96705 10.4235C4.96705 10.8855 4.66461 11.2587 4.29025 11.2587C3.9159 11.2587 3.61345 10.8855 3.61345 10.4235C3.61345 9.96149 3.9159 9.58825 4.29025 9.58825C4.66461 9.58825 4.96705 9.96149 4.96705 10.4235ZM6.32065 11.6763C5.9463 11.6763 5.64385 11.3031 5.64385 10.8411C5.64385 10.3791 5.9463 10.0059 6.32065 10.0059C6.69501 10.0059 6.99745 10.3791 6.99745 10.8411C6.99745 11.3031 6.69501 11.6763 6.32065 11.6763Z" fill="#0A0AF5"/>
</svg>
