<svg width="11" height="11" viewBox="0 0 11 11" fill="none" xmlns="http://www.w3.org/2000/svg">
<path d="M6.54844 1.78966L3.19859 0.0941807C2.91156 -0.0496221 2.59359 -0.0287475 2.32031 0.156805L1.53141 0.687947C1.34062 0.817834 1.32688 1.17734 1.50563 1.33274L4.03047 3.52457L2.3375 4.69123L1.33719 4.09051C1.18766 4.00005 1.01406 4.00469 0.867969 4.10442L0.314531 4.47785C0.154687 4.58686 0.111719 4.86751 0.228594 5.05074L1.485 7.02919C1.58984 7.19386 1.74281 7.28896 1.90266 7.28896H4.26937C4.35531 7.28896 4.43953 7.26113 4.51516 7.2101L9.20562 4.04644C10.0048 3.50602 10.6236 2.57826 10.9381 1.44871C11.1014 0.864221 10.78 0.237984 10.3159 0.237984H9.32937C8.98219 0.237984 8.63844 0.349315 8.32906 0.5627L6.54844 1.78966ZM0 10.2578C0 10.6683 0.245781 11 0.55 11H10.45C10.7542 11 11 10.6683 11 10.2578C11 9.84726 10.7542 9.51558 10.45 9.51558H0.55C0.245781 9.51558 0 9.84726 0 10.2578Z" fill="#0A0AF5"/>
</svg>
